name Walk9.mot
datacolumns 19
datarows 15
range 1.00100000 1.01500000
endheader

                time	   L_ground_force_vx	   L_ground_force_vy	   L_ground_force_vz	   L_ground_force_px	   L_ground_force_py	   L_ground_force_pz	   R_ground_force_vx	   R_ground_force_vy	   R_ground_force_vz	   R_ground_force_px	   R_ground_force_py	   R_ground_force_pz	   L_ground_torque_x	   L_ground_torque_y	   L_ground_torque_z	   R_ground_torque_x	   R_ground_torque_y	   R_ground_torque_z	
          1.00100000	         -0.00000000	         -0.00000002	          0.00000000	         -0.00000000	          0.00000000	         -0.00000000	         -8.66319737	        103.26982017	         13.11563993	         -0.00080197	          0.00000000	         -0.00289574	          0.00000000	          0.00000000	          0.00000000	          0.00000000	         -0.07531715	          0.00000000	
          1.00200000	         -0.00000000	         -0.00000002	          0.00000000	         -0.00000000	          0.00000000	         -0.00000000	        -10.31268445	        112.69198047	         13.83001138	         -0.01372846	          0.00000000	          0.01067636	          0.00000000	          0.00000000	          0.00000000	          0.00000000	         -0.06276079	          0.00000000	
          1.00300000	         -0.00000000	         -0.00000002	          0.00000000	         -0.00000000	          0.00000000	         -0.00000000	        -12.00618938	        122.40961761	         14.55418029	         -0.02660853	          0.00000000	          0.02421006	          0.00000000	          0.00000000	          0.00000000	          0.00000000	         -0.04954251	          0.00000000	
          1.00400000	         -0.00000000	         -0.00000002	          0.00000000	         -0.00000000	          0.00000000	         -0.00000000	        -13.74212204	        132.41235286	         15.28605564	         -0.03940704	          0.00000000	          0.03766946	          0.00000000	          0.00000000	          0.00000000	          0.00000000	         -0.03564052	          0.00000000	
          1.00500000	         -0.00000000	         -0.00000003	          0.00000000	         -0.00000000	          0.00000000	         -0.00000000	        -15.51870461	        142.68789491	         16.02331921	         -0.05208845	          0.00000000	          0.05101826	          0.00000000	          0.00000000	          0.00000000	          0.00000000	         -0.02103229	          0.00000000	
          1.00600000	         -0.00000000	         -0.00000003	          0.00000000	         -0.00000000	          0.00000000	         -0.00000000	        -17.33395503	        153.22189827	         16.76341412	         -0.06461689	          0.00000000	          0.06421990	          0.00000000	          0.00000000	          0.00000000	          0.00000000	         -0.00569458	          0.00000000	
          1.00700000	          0.00000000	         -0.00000003	          0.00000000	         -0.00000000	          0.00000000	         -0.00000000	        -19.18570750	        163.99787479	         17.50353304	         -0.07695716	          0.00000000	          0.07723860	          0.00000000	          0.00000000	          0.00000000	          0.00000000	          0.01039692	          0.00000000	
          1.00800000	          0.00000000	         -0.00000003	          0.00000000	         -0.00000000	          0.00000000	         -0.00000000	        -21.07167920	        174.99719428	         18.24060597	         -0.08907633	          0.00000000	          0.09004103	          0.00000000	          0.00000000	          0.00000000	          0.00000000	          0.02726845	          0.00000000	
          1.00900000	          0.00000000	         -0.00000004	          0.00000000	         -0.00000000	          0.00000000	         -0.00000000	        -22.98955682	        186.19917221	         18.97128808	         -0.10094469	          0.00000000	          0.10259736	          0.00000000	          0.00000000	          0.00000000	          0.00000000	          0.04494906	          0.00000000	
          1.01000000	          0.00000000	         -0.00000004	          0.00000000	         -0.00000000	          0.00000000	         -0.00000000	        -24.93708341	        197.58124395	         19.69194882	         -0.11253591	          0.00000000	          0.11488131	          0.00000000	          0.00000000	          0.00000000	          0.00000000	          0.06347124	          0.00000000	
          1.01100000	          0.00000000	         -0.00000004	          0.00000000	         -0.00000000	          0.00000000	         -0.00000000	        -26.91214684	        209.11924209	         20.39866463	         -0.12382685	          0.00000000	          0.12686996	          0.00000000	          0.00000000	          0.00000000	          0.00000000	          0.08287123	          0.00000000	
          1.01200000	          0.00000000	         -0.00000004	          0.00000001	         -0.00000000	          0.00000000	         -0.00000000	        -28.91286648	        220.78778208	         21.08721845	         -0.13479740	          0.00000000	          0.13854354	          0.00000000	          0.00000000	          0.00000000	          0.00000000	          0.10318924	          0.00000000	
          1.01300000	          0.00000000	         -0.00000005	          0.00000001	         -0.00000000	          0.00000000	         -0.00000000	        -30.93766813	        232.56073935	         21.75310993	         -0.14543028	          0.00000000	          0.14988521	          0.00000000	          0.00000000	          0.00000000	          0.00000000	          0.12446938	          0.00000000	
          1.01400000	          0.00000000	         -0.00000005	          0.00000001	         -0.00000000	          0.00000000	         -0.00000000	        -32.98533711	        244.41178272	         22.39157959	         -0.15571091	          0.00000000	          0.16088087	          0.00000000	          0.00000000	          0.00000000	          0.00000000	          0.14675963	          0.00000000	
          1.01500000	          0.00000000	         -0.00000005	          0.00000001	         -0.00000000	          0.00000000	         -0.00000000	        -35.05504311	        256.31491661	         22.99764865	         -0.16562718	          0.00000000	          0.17151898	          0.00000000	          0.00000000	          0.00000000	          0.00000000	          0.17011174	          0.00000000	
